<svg width="44" height="44" viewBox="0 0 44 44" fill="none" xmlns="http://www.w3.org/2000/svg">
<path fill-rule="evenodd" clip-rule="evenodd" d="M23.8296 11.1843C23.8367 11.1163 23.8403 11.0471 23.8403 10.9772C23.8403 9.88522 22.9551 9 21.8631 9C20.7712 9 19.8859 9.88522 19.8859 10.9772C19.8859 11.0471 19.8896 11.1163 19.8967 11.1843C18.1454 11.5506 16.4784 12.3833 15.1344 13.5293C13.2914 15.1009 11.9772 17.3346 11.9772 19.8745V27.7833C11.9772 28.5796 11.8872 29.1068 11.7224 29.4124C11.6521 29.5428 11.5784 29.613 11.4995 29.6581C11.4165 29.7054 11.265 29.7605 10.9886 29.7605C10.4426 29.7605 10 30.2031 10 30.7491C10 31.2951 10.4426 31.7377 10.9886 31.7377L18.3257 31.7377C18.4717 33.5633 20.0001 35 21.8633 35C23.7264 35 25.2549 33.5633 25.4009 31.7377L32.7377 31.7377C33.2837 31.7377 33.7263 31.2951 33.7263 30.7491C33.7263 30.2031 33.2837 29.7605 32.7377 29.7605C32.4612 29.7605 32.3098 29.7054 32.2268 29.6581C32.1479 29.613 32.0741 29.5428 32.0039 29.4124C31.8391 29.1068 31.7491 28.5796 31.7491 27.7833V19.8745C31.7491 17.3346 30.4348 15.1009 28.5919 13.5293C27.2479 12.3833 25.5809 11.5506 23.8296 11.1843ZM30.0171 29.7605C29.8165 29.1244 29.7719 28.4221 29.7719 27.7833V19.8745C29.7719 18.0449 28.8223 16.3242 27.309 15.0338C25.7939 13.7419 23.7928 12.9544 21.8631 12.9544C19.9335 12.9544 17.9324 13.7419 16.4173 15.0338C14.904 16.3242 13.9544 18.0449 13.9544 19.8745V27.7833C13.9544 28.4221 13.9097 29.1244 13.7091 29.7605H30.0171ZM23.409 31.7377H20.3175C20.4524 32.4686 21.0935 33.0228 21.8633 33.0228C22.6331 33.0228 23.2741 32.4686 23.409 31.7377Z" fill="#6633FF"/>
</svg>
