<svg width="17" height="16" viewBox="0 0 17 16" fill="none" xmlns="http://www.w3.org/2000/svg">
<path d="M7.0979 13.4536C7.0979 13.7543 7.2775 14.0259 7.55419 14.1437C7.83088 14.2614 8.15116 14.2025 8.36786 13.994L10.1914 12.2397L10.1921 12.2391C10.2143 12.2177 10.2414 12.2069 10.2716 12.2069H13.0416C14.0906 12.2069 14.9458 11.3517 14.9458 10.3027V3.30846C14.9458 2.25946 14.0906 1.4043 13.0416 1.4043H3.80832C2.75932 1.4043 1.90416 2.25946 1.90416 3.30846V10.3085C1.90416 11.3575 2.75932 12.2126 3.80832 12.2126H6.98227C7.04704 12.2126 7.0979 12.2635 7.0979 12.3282V13.4536Z" stroke="white" stroke-width="1.5" stroke-linejoin="round"/>
</svg>
