<svg width="81" height="18" viewBox="0 0 81 18" fill="none" xmlns="http://www.w3.org/2000/svg">
<g clip-path="url(#clip0_180_700)">
<path d="M10.4073 0V10.8009C10.4073 12.8073 8.83965 14.4402 6.91347 14.4402C4.98729 14.4402 3.41961 12.8073 3.41961 10.8009H0C0 14.7717 3.10141 18.0022 6.91347 18.0022C10.7255 18.0022 13.8269 14.7717 13.8269 10.8009V0H10.4073Z" fill="#6633FF"/>
<path d="M43.511 3.59956C42.1512 3.59956 40.9102 4.14314 39.9768 5.02922C39.0434 4.14093 37.8024 3.59956 36.4426 3.59956C33.5512 3.59956 31.1987 6.05009 31.1987 9.06187V17.5006H34.6183V9.06187C34.6183 8.01449 35.4371 7.16155 36.4426 7.16155C37.4481 7.16155 38.267 8.01449 38.267 9.06187V17.5006H41.6866V9.06187C41.6866 8.01449 42.5054 7.16155 43.511 7.16155C44.5165 7.16155 45.3353 8.01449 45.3353 9.06187V17.5006H48.7549V9.06187C48.7549 6.05009 46.4023 3.59956 43.511 3.59956Z" fill="#6633FF"/>
<path d="M25.8083 4.12546V4.81267C24.7455 4.04812 23.4685 3.60177 22.0981 3.60177C18.4069 3.60177 15.4031 6.83231 15.4031 10.8031C15.4031 14.7739 18.4069 18.0044 22.0981 18.0044C23.4706 18.0044 24.7455 17.5581 25.8083 16.7935V17.4807H29.2279V4.12546H25.8083ZM22.3929 14.4402C20.4668 14.4402 18.8991 12.8073 18.8991 10.8009C18.8991 8.7945 20.4668 7.16155 22.3929 7.16155C24.3191 7.16155 25.8868 8.7945 25.8868 10.8009C25.8868 12.8073 24.3191 14.4402 22.3929 14.4402Z" fill="#6633FF"/>
<path d="M73.0401 3.59956C69.228 3.59956 66.1266 6.8301 66.1266 10.8009C66.1266 14.7717 69.228 18.0022 73.0401 18.0022C76.8522 18.0022 79.9536 14.7717 79.9536 10.8009C79.9536 6.8301 76.8522 3.59956 73.0401 3.59956ZM73.0401 14.4402C71.1139 14.4402 69.5462 12.8073 69.5462 10.8009C69.5462 8.7945 71.1139 7.16155 73.0401 7.16155C74.9663 7.16155 76.534 8.7945 76.534 10.8009C76.534 12.8073 74.9663 14.4402 73.0401 14.4402Z" fill="#6633FF"/>
<path d="M57.637 3.59956C56.3621 3.59956 55.1699 3.96194 54.1431 4.5917V0H50.7235V10.8009C50.7235 14.7717 53.825 18.0022 57.637 18.0022C61.4491 18.0022 64.5505 14.7717 64.5505 10.8009C64.5505 6.8301 61.4491 3.59956 57.637 3.59956ZM57.637 14.4402C55.7108 14.4402 54.1431 12.8073 54.1431 10.8009C54.1431 8.7945 55.7108 7.16155 57.637 7.16155C59.5632 7.16155 61.1309 8.7945 61.1309 10.8009C61.1309 12.8073 59.5632 14.4402 57.637 14.4402Z" fill="#6633FF"/>
</g>
<defs>
<clipPath id="clip0_180_700">
<rect width="80.3543" height="18" fill="white"/>
</clipPath>
</defs>
</svg>
