<svg width="12" height="12" viewBox="0 0 12 12" fill="none" xmlns="http://www.w3.org/2000/svg">
<path fill-rule="evenodd" clip-rule="evenodd" d="M4.17002 5.39688C5.32887 5.39688 6.26837 4.4574 6.26837 3.29854C6.26837 2.13969 5.32887 1.2002 4.17002 1.2002C3.01118 1.2002 2.07168 2.13969 2.07168 3.29854C2.07168 4.45738 3.01118 5.39688 4.17002 5.39688ZM8.882 5.34189C9.74606 5.34189 10.4466 4.6414 10.4466 3.77734C10.4466 2.91327 9.74606 2.21278 8.882 2.21278C8.01793 2.21278 7.31744 2.91327 7.31744 3.77734C7.31744 4.6414 8.01793 5.34189 8.882 5.34189ZM11.9921 9.04136C11.6792 7.07186 10.6484 5.89384 8.88136 5.89384C8.20035 5.89384 7.64816 6.05952 7.18796 6.39079L7.18797 6.3908C7.24321 6.44604 7.29839 6.50122 7.37203 6.55646C8.12668 7.34798 8.64209 8.48915 8.88133 9.94326C8.88133 9.97367 8.88691 10.0041 8.89192 10.0314C8.89601 10.0537 8.89973 10.074 8.89973 10.0905C10.6115 10.1089 12.1209 9.81444 11.992 9.04134L11.9921 9.04136ZM0.00950278 10.0536C-0.156156 11.066 1.86856 11.4709 4.16938 11.4709C6.47019 11.4709 8.49493 11.0659 8.32925 10.0536C7.8875 7.42147 6.50701 5.85692 4.16938 5.85692C1.83175 5.85692 0.451275 7.40306 0.00950278 10.0536Z" fill="#5C81FC"/>
</svg>
